<svg width="64" height="40" viewBox="0 0 64 40" fill="none" xmlns="http://www.w3.org/2000/svg">
<path d="M58.2686 0H5.7315C5.51269 0 5.29349 0 5.07507 0.00124569C4.89044 0.00252913 4.70623 0.00452979 4.52203 0.00943707C4.12029 0.0200443 3.71511 0.043184 3.3184 0.112792C2.91535 0.183608 2.54029 0.299117 2.1744 0.480989C1.81469 0.659576 1.48538 0.893162 1.19999 1.1719C0.914475 1.45063 0.675211 1.7716 0.492322 2.12315C0.305992 2.48036 0.187597 2.84664 0.115563 3.24043C0.0438802 3.62784 0.0200196 4.02332 0.00919317 4.41511C0.00424396 4.59495 0.0021212 4.77478 0.000918699 4.95457C-0.000357272 5.16827 6.80518e-05 5.38181 6.80518e-05 5.59588V34.4045C6.80518e-05 34.6186 -0.000357272 34.8318 0.000918699 35.0459C0.0021212 35.2257 0.00424396 35.4055 0.00919317 35.5853C0.0200196 35.9768 0.0438802 36.3723 0.115563 36.7596C0.187597 37.1535 0.305992 37.5196 0.492322 37.8769C0.675211 38.2284 0.914475 38.5498 1.19999 38.8281C1.48538 39.1073 1.81469 39.3409 2.1744 39.519C2.54029 39.7014 2.91535 39.8169 3.3184 39.8877C3.71511 39.9569 4.12029 39.9804 4.52203 39.991C4.70623 39.9951 4.89044 39.9975 5.07507 39.9983C5.29349 40 5.51269 40 5.7315 40H58.2686C58.487 40 58.7062 40 58.9246 39.9983C59.1088 39.9975 59.293 39.9951 59.478 39.991C59.8789 39.9804 60.284 39.9569 60.6817 39.8877C61.0842 39.8169 61.4593 39.7014 61.8253 39.519C62.1854 39.3409 62.5137 39.1073 62.7997 38.8281C63.0847 38.5498 63.324 38.2284 63.5074 37.8769C63.6941 37.5196 63.8124 37.1535 63.8841 36.7596C63.9558 36.3723 63.9791 35.9768 63.9899 35.5853C63.995 35.4055 63.9974 35.2257 63.9983 35.0459C64 34.8318 64 34.6186 64 34.4045V5.59588C64 5.38181 64 5.16827 63.9983 4.95457C63.9974 4.77478 63.995 4.59495 63.9899 4.41511C63.9791 4.02332 63.9558 3.62784 63.8841 3.24043C63.8124 2.84664 63.6941 2.48036 63.5074 2.12315C63.324 1.7716 63.0847 1.45063 62.7997 1.1719C62.5137 0.893162 62.1854 0.659576 61.8253 0.480989C61.4593 0.299117 61.0842 0.183608 60.6817 0.112792C60.284 0.043184 59.8789 0.0200443 59.478 0.00943707C59.293 0.00452979 59.1088 0.00252913 58.9246 0.00124569C58.7062 0 58.487 0 58.2686 0Z" fill="black"/>
<path d="M17.4702 13.4533C18.0182 12.7841 18.39 11.8857 18.292 10.9675C17.4898 11.0065 16.5109 11.4842 15.9442 12.1539C15.4353 12.7273 14.9849 13.6634 15.1023 14.5431C16.0028 14.6193 16.9024 14.1036 17.4702 13.4533Z" fill="white"/>
<path d="M18.2816 14.7148C16.9739 14.6388 15.862 15.4394 15.2375 15.4394C14.6127 15.4394 13.6564 14.7531 12.622 14.7716C11.2758 14.7909 10.0266 15.5341 9.34346 16.716C7.9383 19.0804 8.97264 22.5876 10.3391 24.5133C11.0027 25.466 11.8024 26.5149 12.8561 26.4773C13.8517 26.4391 14.242 25.8479 15.4522 25.8479C16.6615 25.8479 17.0131 26.4773 18.067 26.4582C19.1599 26.4391 19.8432 25.505 20.5068 24.5514C21.268 23.4654 21.5797 22.4168 21.5993 22.3592C21.5797 22.3401 19.4917 21.5582 19.4724 19.2134C19.4527 17.2501 21.1116 16.3163 21.1897 16.2583C20.2529 14.9057 18.7891 14.7531 18.2816 14.7148Z" fill="white"/>
<path d="M29.6692 12.0598C32.5115 12.0598 34.4907 13.9726 34.4907 16.7574C34.4907 19.5521 32.4708 21.4748 29.5979 21.4748H26.4509V26.3606H24.1772V12.0598L29.6692 12.0598ZM26.4509 19.6115H29.0598C31.0394 19.6115 32.1661 18.5711 32.1661 16.7673C32.1661 14.9637 31.0394 13.933 29.07 13.933H26.4509V19.6115Z" fill="white"/>
<path d="M35.0859 23.3958C35.0859 21.5722 36.5173 20.4524 39.0553 20.3136L41.9787 20.1452V19.3425C41.9787 18.1829 41.1767 17.4892 39.837 17.4892C38.5677 17.4892 37.7759 18.0837 37.5832 19.0154H35.5124C35.6342 17.1323 37.2786 15.7449 39.918 15.7449C42.5066 15.7449 44.1611 17.0828 44.1611 19.1739V26.359H42.0597V24.6445H42.0092C41.3901 25.804 40.0398 26.5373 38.639 26.5373C36.5478 26.5373 35.0859 25.2688 35.0859 23.3958ZM41.9787 22.4544V21.6318L39.3494 21.7903C38.0399 21.8795 37.2989 22.4444 37.2989 23.3364C37.2989 24.248 38.0704 24.8427 39.248 24.8427C40.7807 24.8427 41.9787 23.812 41.9787 22.4544Z" fill="white"/>
<path d="M46.1442 30.196V28.4616C46.3063 28.5012 46.6717 28.5012 46.8545 28.5012C47.8696 28.5012 48.4179 28.0851 48.7527 27.0148C48.7527 26.9949 48.9457 26.3805 48.9457 26.3706L45.0884 15.9348H47.4635L50.164 24.4183H50.2044L52.9049 15.9348H55.2193L51.2194 26.9056C50.3062 29.4329 49.2504 30.2455 47.0374 30.2455C46.8545 30.2455 46.3063 30.2257 46.1442 30.196Z" fill="white"/>
</svg>
