<svg width="46" height="19" viewBox="0 0 46 19" fill="none" xmlns="http://www.w3.org/2000/svg">
<path d="M21.5203 9.21989V14.4075H19.8862V1.59717H24.2181C25.316 1.59717 26.2522 1.96587 27.0181 2.70328C27.8011 3.44068 28.1926 4.34101 28.1926 5.40424C28.1926 6.4932 27.8011 7.39352 27.0181 8.12235C26.2607 8.85118 25.3245 9.21131 24.2181 9.21131H21.5203V9.21989ZM21.5203 3.17488V7.64218H24.2522C24.899 7.64218 25.4437 7.41925 25.8692 6.98195C26.3033 6.54465 26.5245 6.01303 26.5245 5.41281C26.5245 4.82118 26.3033 4.29813 25.8692 3.86083C25.4437 3.40639 24.9075 3.18345 24.2522 3.18345H21.5203V3.17488Z" fill="white"/>
<path d="M32.4647 5.35229C33.6732 5.35229 34.6264 5.67812 35.3243 6.32979C36.0221 6.98145 36.3711 7.87319 36.3711 9.00503V14.407H34.8136V13.1894H34.7455C34.0732 14.1926 33.1711 14.6899 32.0477 14.6899C31.086 14.6899 30.286 14.407 29.6392 13.8325C28.9924 13.258 28.6689 12.5463 28.6689 11.6888C28.6689 10.7799 29.0094 10.0597 29.6902 9.52807C30.3711 8.98788 31.2817 8.72207 32.4136 8.72207C33.3838 8.72207 34.1838 8.90213 34.8051 9.26226V8.88498C34.8051 8.31049 34.5838 7.83032 34.1328 7.42732C33.6817 7.02432 33.1541 6.82711 32.5498 6.82711C31.6392 6.82711 30.9158 7.21296 30.3881 7.99324L28.9498 7.08434C29.7413 5.92678 30.9158 5.35229 32.4647 5.35229ZM30.3541 11.7146C30.3541 12.1433 30.5328 12.5034 30.8987 12.7864C31.2562 13.0693 31.6817 13.2151 32.1668 13.2151C32.8562 13.2151 33.4689 12.9579 34.0051 12.4434C34.5413 11.9289 34.8136 11.3287 34.8136 10.6342C34.303 10.2312 33.5966 10.0254 32.686 10.0254C32.0221 10.0254 31.4689 10.1883 31.0264 10.5056C30.5753 10.84 30.3541 11.243 30.3541 11.7146Z" fill="white"/>
<path d="M45.256 5.63599L39.8092 18.2576H38.1241L40.1496 13.8418L36.5581 5.63599H38.3368L40.9241 11.9297H40.9581L43.4773 5.63599H45.256Z" fill="white"/>
<path d="M15.0187 8.17122C15.0187 7.63446 14.9711 7.12084 14.8826 6.62695H8.0332V9.45653L11.9779 9.45739C11.8179 10.3989 11.303 11.2014 10.5141 11.7365V13.5723H12.8621C14.2332 12.2938 15.0187 10.404 15.0187 8.17122Z" fill="#4285F4"/>
<path d="M10.5158 11.7362C9.86215 12.1803 9.02044 12.4401 8.03576 12.4401C6.13364 12.4401 4.52002 11.1488 3.94215 9.4082H1.52002V11.3015C2.72002 13.7006 5.1864 15.3469 8.03576 15.3469C10.0051 15.3469 11.6596 14.6944 12.8638 13.5711L10.5158 11.7362Z" fill="#34A853"/>
<path d="M3.7135 8.0049C3.7135 7.51616 3.79435 7.04371 3.94159 6.59955V4.7063H1.51946C1.02329 5.69837 0.744141 6.81819 0.744141 8.0049C0.744141 9.19161 1.02414 10.3114 1.51946 11.3035L3.94159 9.41026C3.79435 8.9661 3.7135 8.49365 3.7135 8.0049Z" fill="#FABB05"/>
<path d="M8.03576 3.56617C9.11066 3.56617 10.0732 3.93917 10.8332 4.668L12.9141 2.57325C11.6502 1.3874 10.0026 0.659424 8.03576 0.659424C5.18725 0.659424 2.72002 2.30572 1.52002 4.70487L3.94215 6.59811C4.52002 4.85749 6.13364 3.56617 8.03576 3.56617Z" fill="#E94235"/>
</svg>
