<svg width="16" height="16" viewBox="0 0 16 16" fill="none" xmlns="http://www.w3.org/2000/svg">
<path fill-rule="evenodd" clip-rule="evenodd" d="M11.4998 2.70344L12.2076 1.99707L13.9983 3.79146L13.2904 4.49783L11.4998 2.70344ZM3.79088 2.00145L2.00024 3.79584L2.70809 4.50221L4.49873 2.70782L3.79088 2.00145ZM4.94443 13.0729C5.8489 13.6773 6.91227 13.9998 8.00006 13.9998C9.45875 13.9998 10.8577 13.4204 11.8892 12.3889C12.9206 11.3575 13.5001 9.95852 13.5001 8.49983C13.5001 7.41203 13.1775 6.34866 12.5731 5.44419C11.9688 4.53972 11.1098 3.83477 10.1048 3.41849C9.09983 3.00221 7.99396 2.89329 6.92707 3.10551C5.86017 3.31772 4.88017 3.84155 4.11098 4.61074C3.34179 5.37993 2.81796 6.35993 2.60574 7.42683C2.39353 8.49372 2.50244 9.59959 2.91873 10.6046C3.33501 11.6096 4.03996 12.4686 4.94443 13.0729ZM5.5 4.75821C6.24002 4.26375 7.11005 3.99983 8.00006 3.99983C9.19354 3.99983 10.3381 4.47393 11.182 5.31784C12.026 6.16176 12.5001 7.30635 12.5001 8.49983C12.5001 9.38984 12.2361 10.2599 11.7417 10.9999C11.2472 11.7399 10.5444 12.3167 9.72214 12.6573C8.89987 12.9979 7.99507 13.087 7.12216 12.9134C6.24924 12.7397 5.44742 12.3111 4.81808 11.6818C4.18875 11.0525 3.76016 10.2506 3.58653 9.37773C3.4129 8.50482 3.50201 7.60002 3.84261 6.77775C4.1832 5.95548 4.75998 5.25268 5.5 4.75821ZM7.50006 8.70482L9.29506 10.4998L10.0001 9.79482L8.50006 8.28982V5.49982H7.50006V8.70482Z" fill="black"/>
</svg>
