<svg width="16" height="16" viewBox="0 0 16 16" fill="none" xmlns="http://www.w3.org/2000/svg">
<path fill-rule="evenodd" clip-rule="evenodd" d="M8 1H14C14.2651 1.0003 14.5193 1.10576 14.7068 1.29323C14.8942 1.4807 14.9997 1.73488 15 2V15H1V8C1.00026 7.73486 1.10571 7.48066 1.29319 7.29319C1.48066 7.10571 1.73486 7.00026 2 7H7V2C7.00026 1.73486 7.10571 1.48066 7.29319 1.29319C7.48066 1.10571 7.73486 1.00026 8 1ZM4.5 10.5V14H6.5V10.5H4.5ZM7.5 14H14V2H8V8H2V14H3.5V10C3.5 9.86739 3.55268 9.74021 3.64645 9.64645C3.74021 9.55268 3.86739 9.5 4 9.5H7C7.13261 9.5 7.25979 9.55268 7.35355 9.64645C7.44732 9.74021 7.5 9.86739 7.5 10V14ZM9 4H10V5H9V4ZM13 4H12V5H13V4ZM9 7H10V8H9V7ZM13 7H12V8H13V7ZM9 9.99982H10V10.9998H9V9.99982ZM13 9.99982H12V10.9998H13V9.99982ZM1 5.00012H3.5V5.99987H1V5.00012ZM6 1H5V3.5H6V1ZM2 2.70703L2.70704 2L4.50001 3.79297L3.79298 4.50001L2 2.70703Z" fill="white"/>
</svg>
