<svg width="48" height="48" viewBox="0 0 48 48" fill="none" xmlns="http://www.w3.org/2000/svg">
<path fill-rule="evenodd" clip-rule="evenodd" d="M24 43.5L26.6037 45L31.7469 36H39C39.788 36.0001 40.5682 35.845 41.2963 35.5436C42.0243 35.2421 42.6858 34.8001 43.243 34.243C43.8001 33.6858 44.2421 33.0243 44.5436 32.2963C44.845 31.5682 45.0001 30.788 45 30V9C45.0002 8.212 44.8452 7.43168 44.5438 6.70362C44.2423 5.97556 43.8004 5.31403 43.2432 4.75683C42.686 4.19963 42.0244 3.75769 41.2964 3.45624C40.5683 3.1548 39.788 2.99976 39 3H9C8.212 2.99976 7.43168 3.1548 6.70362 3.45624C5.97556 3.75769 5.31403 4.19963 4.75683 4.75683C4.19963 5.31403 3.75769 5.97556 3.45624 6.70362C3.1548 7.43168 2.99976 8.212 3 9V30C2.99986 30.788 3.15496 31.5682 3.45644 32.2963C3.75792 33.0243 4.19987 33.6858 4.75705 34.243C5.31423 34.8001 5.97572 35.2421 6.70374 35.5436C7.43175 35.845 8.21203 36.0001 9 36H22.5V33H9C8.60585 33.0007 8.21544 32.9235 7.85116 32.773C7.48688 32.6225 7.15589 32.4015 6.87718 32.1228C6.59847 31.8441 6.37752 31.5131 6.22699 31.1488C6.07647 30.7846 5.99933 30.3942 6 30V9C5.99933 8.60585 6.07647 8.21544 6.22699 7.85116C6.37752 7.48688 6.59847 7.15589 6.87718 6.87718C7.15589 6.59847 7.48688 6.37752 7.85116 6.22699C8.21544 6.07647 8.60585 5.99933 9 6H39C39.3942 5.99933 39.7846 6.07647 40.1488 6.22699C40.5131 6.37752 40.8441 6.59847 41.1228 6.87718C41.4015 7.15589 41.6225 7.48688 41.773 7.85116C41.9235 8.21544 42.0007 8.60585 42 9V30C42.0007 30.3942 41.9235 30.7846 41.773 31.1488C41.6225 31.5131 41.4015 31.8441 41.1228 32.1228C40.8441 32.4015 40.5131 32.6225 40.1488 32.773C39.7846 32.9235 39.3942 33.0007 39 33H30L24 43.5ZM18 12C17.4067 12 16.8266 12.1759 16.3333 12.5056C15.8399 12.8352 15.4554 13.3037 15.2284 13.8519C15.0013 14.4001 14.9419 15.0033 15.0576 15.5852C15.1734 16.1672 15.4591 16.7017 15.8787 17.1213C16.2982 17.5408 16.8328 17.8266 17.4147 17.9423C17.9967 18.0581 18.5999 17.9987 19.1481 17.7716C19.6962 17.5445 20.1648 17.16 20.4944 16.6667C20.8241 16.1733 21 15.5933 21 15C21.0039 14.6049 20.9289 14.2131 20.7796 13.8473C20.6302 13.4816 20.4093 13.1493 20.13 12.87C19.8506 12.5906 19.5184 12.3698 19.1526 12.2204C18.7869 12.071 18.395 11.9961 18 12ZM28.3333 12.5056C28.8266 12.1759 29.4067 12 30 12C30.395 11.9961 30.7869 12.071 31.1526 12.2204C31.5184 12.3698 31.8506 12.5906 32.13 12.87C32.4093 13.1493 32.6302 13.4816 32.7796 13.8473C32.9289 14.2131 33.0039 14.6049 33 15C33 15.5933 32.8241 16.1733 32.4944 16.6667C32.1648 17.16 31.6962 17.5445 31.1481 17.7716C30.5999 17.9987 29.9967 18.0581 29.4147 17.9423C28.8328 17.8266 28.2982 17.5408 27.8787 17.1213C27.4591 16.7017 27.1734 16.1672 27.0576 15.5852C26.9419 15.0033 27.0013 14.4001 27.2284 13.8519C27.4554 13.3037 27.8399 12.8352 28.3333 12.5056ZM19.0346 27.2546C20.5614 28.0736 22.2674 28.5015 24 28.5C25.7326 28.5015 27.4385 28.0736 28.9654 27.2546C30.4922 26.4357 31.7923 25.2512 32.7495 23.807L30.2505 22.1459C29.5662 23.1772 28.6374 24.0233 27.5468 24.6085C26.4562 25.1937 25.2377 25.5 24 25.5C22.7623 25.5 21.5438 25.1937 20.4532 24.6085C19.3626 24.0233 18.4338 23.1772 17.7495 22.1459L15.2505 23.807C16.2077 25.2512 17.5078 26.4357 19.0346 27.2546Z" fill="#1D0387"/>
</svg>
