<svg width="14" height="14" viewBox="0 0 14 14" fill="none" xmlns="http://www.w3.org/2000/svg">
<path d="M14 6.5H10.965C10.8528 5.62017 10.4517 4.80249 9.82459 4.17529C9.19746 3.54809 8.37982 3.14689 7.5 3.03465V0H6.5V3.03465C5.62018 3.14689 4.80254 3.54809 4.17541 4.17529C3.54827 4.80249 3.14715 5.62017 3.035 6.5H0V7.5H3.035C3.14715 8.37983 3.54827 9.19751 4.17541 9.82471C4.80254 10.4519 5.62018 10.8531 6.5 10.9654V14H7.5V10.9654C8.37986 10.8532 9.19756 10.452 9.82475 9.82478C10.4519 9.19758 10.8531 8.37986 10.9653 7.5H14V6.5ZM7 10C6.40666 10 5.82664 9.82405 5.33329 9.49441C4.83994 9.16476 4.45542 8.69623 4.22836 8.14805C4.0013 7.59987 3.94189 6.99667 4.05764 6.41473C4.1734 5.83279 4.45912 5.29824 4.87868 4.87868C5.29824 4.45912 5.83279 4.1734 6.41473 4.05764C6.99667 3.94189 7.59987 4.0013 8.14805 4.22836C8.69623 4.45542 9.16476 4.83994 9.49441 5.33329C9.82405 5.82664 10 6.40666 10 7C9.99913 7.79538 9.68278 8.55794 9.12036 9.12036C8.55794 9.68278 7.79538 9.99913 7 10Z" fill="black"/>
</svg>
