<svg width="32" height="32" viewBox="0 0 32 32" fill="none" xmlns="http://www.w3.org/2000/svg">
<path d="M24.5857 6.5859C24.4004 6.39955 24.18 6.25181 23.9373 6.15124C23.6945 6.05067 23.4342 5.99926 23.1714 6H16V2H14V6H6C5.46977 6.00066 4.96145 6.21159 4.58652 6.58652C4.21159 6.96145 4.00066 7.46977 4 8V14C4.00066 14.5302 4.21159 15.0386 4.58652 15.4135C4.96145 15.7884 5.46977 15.9993 6 16H14V30H16V16H23.1714C23.4342 16.0007 23.6945 15.9493 23.9373 15.8488C24.18 15.7482 24.4004 15.6004 24.5857 15.4141L29 11L24.5857 6.5859ZM23.1714 14H6V8H23.1716L26.1716 11L23.1714 14Z" fill="#FD226E"/>
</svg>
