<svg width="32" height="32" viewBox="0 0 32 32" fill="none" xmlns="http://www.w3.org/2000/svg">
<path fill-rule="evenodd" clip-rule="evenodd" d="M21 1.99996H22C22.7962 1.96903 23.5902 2.10307 24.3322 2.39365C25.0741 2.68424 25.748 3.12509 26.3114 3.68853C26.8749 4.25197 27.3157 4.92582 27.6063 5.66777C27.8969 6.40972 28.0309 7.20374 28 7.99996V18C28 18.5304 27.7893 19.0391 27.4142 19.4142C27.0391 19.7892 26.5304 20 26 20H23V30H21V1.99996ZM23 18H26V7.99996C26 7.62996 25.88 4.64996 23 4.08996V18ZM14 11C14 12.0609 13.5786 13.0783 12.8284 13.8284C12.0783 14.5786 11.0609 15 10 15C8.93913 15 7.92172 14.5786 7.17157 13.8284C6.42143 13.0783 6 12.0609 6 11V2H4V11C4.00144 12.4169 4.50425 13.7875 5.41939 14.8692C6.33452 15.9509 7.60294 16.6739 9 16.91V30H11V16.91C12.3971 16.6739 13.6655 15.9509 14.5806 14.8692C15.4958 13.7875 15.9986 12.4169 16 11V2H14V11ZM11 2H9V12H11V2Z" fill="#FD226E"/>
</svg>
