<svg width="32" height="32" viewBox="0 0 32 32" fill="none" xmlns="http://www.w3.org/2000/svg">
<path d="M18.57 28C17.897 26.7251 16 22.2261 16 12V11.8687L17.1172 12.6133C18.0048 13.2037 18.7325 14.0045 19.2355 14.9444C19.7385 15.8843 20.0011 16.934 20 18H22C22.0015 16.6047 21.6577 15.2306 20.9994 14.0004C20.341 12.7702 19.3884 11.722 18.2266 10.9492L16.8027 10H18.3335C19.8476 10.0029 21.3205 10.4938 22.5335 11.4L24.4 12.8L25.6 11.2L23.7334 9.8C22.1735 8.63546 20.28 8.0043 18.3334 8H17.1172C18.4234 6.72469 20.1745 6.00746 22 6H24V4H22C20.6565 4.00503 19.331 4.30964 18.1201 4.89163C16.9091 5.47362 15.8432 6.31835 15 7.3643C14.1568 6.31835 13.0909 5.47362 11.8799 4.89163C10.669 4.30964 9.34352 4.00503 8 4H6V6H8C9.82553 6.00746 11.5766 6.72469 12.8828 8H11.6665C9.71987 8.0043 7.82638 8.63546 6.2665 9.8L4.4 11.2L5.6 12.8L7.4668 11.4C8.67982 10.4938 10.1527 10.0029 11.6668 10H13.1976L11.7737 10.9492C10.6118 11.7219 9.65921 12.7701 9.00077 14.0004C8.34233 15.2306 7.99852 16.6046 8 18H10C9.99887 16.934 10.2615 15.8843 10.7645 14.9444C11.2675 14.0045 11.9952 13.2037 12.8828 12.6133L14 11.8687V12C14 20.9438 15.4116 25.7646 16.3611 28H2V30H30V28H18.57Z" fill="#FD226E"/>
</svg>
