<svg width="32" height="32" viewBox="0 0 32 32" fill="none" xmlns="http://www.w3.org/2000/svg">
<path fill-rule="evenodd" clip-rule="evenodd" d="M22 8H28C28.5302 8.00061 29.0386 8.21152 29.4135 8.58646C29.7885 8.9614 29.9994 9.46975 30 10V20C30.0003 22.3047 29.2044 24.5387 27.7471 26.3241C26.2897 28.1095 24.2603 29.3366 22.0022 29.7979C19.7442 30.2591 17.3961 29.9262 15.3553 28.8553C13.3145 27.7845 11.7063 26.0416 10.8027 23.9214C8.37747 23.6267 6.14371 22.4553 4.52231 20.6279C2.9009 18.8004 2.00379 16.4431 2 14V4C2.00061 3.46975 2.21152 2.9614 2.58646 2.58646C2.9614 2.21152 3.46975 2.00061 4 2H20C20.5302 2.00061 21.0386 2.21152 21.4135 2.58646C21.7885 2.9614 21.9994 3.46975 22 4V8ZM4 4V14C4.00311 15.8016 4.61361 17.5495 5.73284 18.9612C6.85207 20.3729 8.41463 21.366 10.168 21.78C10.0588 21.1929 10.0025 20.5972 10 20V10C10.0006 9.46975 10.2115 8.9614 10.5865 8.58646C10.9614 8.21152 11.4698 8.00061 12 8H20V4H4ZM25.6569 25.6569C27.1571 24.1566 28 22.1217 28 20V10H12V20C12 22.1217 12.8429 24.1566 14.3431 25.6569C15.8434 27.1571 17.8783 28 20 28C22.1217 28 24.1566 27.1571 25.6569 25.6569ZM16 14.0001C15.6044 14.0001 15.2178 14.1174 14.8889 14.3372C14.56 14.5569 14.3036 14.8693 14.1522 15.2347C14.0009 15.6002 13.9613 16.0023 14.0384 16.3903C14.1156 16.7782 14.3061 17.1346 14.5858 17.4143C14.8655 17.694 15.2219 17.8845 15.6098 17.9617C15.9978 18.0388 16.3999 17.9992 16.7654 17.8479C17.1308 17.6965 17.4432 17.4401 17.6629 17.1112C17.8827 16.7823 18 16.3957 18 16.0001C18.0026 15.7367 17.9526 15.4755 17.853 15.2317C17.7535 14.9879 17.6062 14.7663 17.42 14.5801C17.2338 14.3939 17.0122 14.2466 16.7684 14.1471C16.5246 14.0475 16.2634 13.9975 16 14.0001ZM22.8889 14.3372C23.2178 14.1174 23.6044 14.0001 24 14.0001C24.2634 13.9975 24.5246 14.0475 24.7684 14.1471C25.0122 14.2466 25.2338 14.3939 25.42 14.5801C25.6062 14.7663 25.7535 14.9879 25.853 15.2317C25.9526 15.4755 26.0026 15.7367 26 16.0001C26 16.3957 25.8827 16.7823 25.6629 17.1112C25.4432 17.4401 25.1308 17.6965 24.7654 17.8479C24.3999 17.9992 23.9978 18.0388 23.6098 17.9617C23.2219 17.8845 22.8655 17.694 22.5858 17.4143C22.3061 17.1346 22.1156 16.7782 22.0384 16.3903C21.9613 16.0023 22.0009 15.6002 22.1522 15.2347C22.3036 14.8693 22.56 14.5569 22.8889 14.3372ZM16.6897 24.1695C17.7076 24.7155 18.8449 25.0007 20 24.9998C21.1551 25.0007 22.2924 24.7155 23.3102 24.1695C24.3281 23.6235 25.1949 22.8339 25.833 21.8711L24.167 20.7637C23.7108 21.4512 23.0916 22.0153 22.3645 22.4054C21.6374 22.7956 20.8251 22.9998 20 22.9998C19.1749 22.9998 18.3625 22.7956 17.6355 22.4054C16.9084 22.0153 16.2892 21.4512 15.833 20.7637L14.167 21.8711C14.8051 22.8339 15.6719 23.6235 16.6897 24.1695Z" fill="#FD226E"/>
</svg>
