<svg width="24" height="28" viewBox="0 0 24 28" fill="none" xmlns="http://www.w3.org/2000/svg">
<path d="M22 16.0002H16V12.8984C16.0276 11.532 16.4283 10.1992 17.1587 9.04417C17.8937 7.80988 18.1594 6.35211 17.9072 4.93788C17.6549 3.52364 16.9016 2.24763 15.7852 1.34357C14.9793 0.686565 14.0165 0.250376 12.9912 0.0778057C11.9659 -0.0947645 10.9133 0.00221434 9.93678 0.359225C8.96026 0.716235 8.09333 1.32101 7.42109 2.1142C6.74885 2.90738 6.29438 3.86172 6.1023 4.88357C5.8264 6.31982 6.09284 7.80736 6.8501 9.05857C7.56785 10.1752 7.96557 11.4674 8 12.7944V16.0002H2C1.46973 16.0007 0.961329 16.2116 0.586371 16.5865C0.211413 16.9615 0.000529477 17.4699 0 18.0002V22.0002C0.000661548 22.5304 0.211588 23.0387 0.586517 23.4136C0.961447 23.7886 1.46977 23.9995 2 24.0002V26.0002C2.00066 26.5304 2.21159 27.0387 2.58652 27.4136C2.96145 27.7886 3.46977 27.9995 4 28.0002H20C20.5302 27.9995 21.0386 27.7886 21.4135 27.4136C21.7884 27.0387 21.9993 26.5304 22 26.0002V24.0002C22.5302 23.9995 23.0386 23.7886 23.4135 23.4136C23.7884 23.0387 23.9993 22.5304 24 22.0002V18.0002C23.9995 17.4699 23.7886 16.9615 23.4136 16.5865C23.0387 16.2116 22.5303 16.0007 22 16.0002ZM8.07 5.24417C8.17748 4.67008 8.40939 4.12651 8.74943 3.65164C9.08948 3.17678 9.5294 2.78216 10.0383 2.49552C10.5472 2.20888 11.1127 2.03717 11.695 1.99247C12.2773 1.94776 12.8624 2.03115 13.4091 2.23677C13.9557 2.44238 14.4507 2.76524 14.8593 3.18264C15.2678 3.60003 15.58 4.10185 15.7738 4.6528C15.9677 5.20375 16.0385 5.79048 15.9813 6.37173C15.9241 6.95298 15.7403 7.51465 15.4428 8.01727C14.6994 9.22883 14.2297 10.5881 14.0664 12.0002H9.94C9.78249 10.5898 9.31241 9.23231 8.564 8.02657C8.06064 7.19221 7.88462 6.20081 8.07 5.24417ZM14 14.0002V16.0002H10V14.0002H14ZM20 26.0002H4V24.0002H20V26.0002ZM2 22.0002V18.0002H22V22.0002H2Z" fill="#FD226E"/>
</svg>
