<svg width="32" height="32" viewBox="0 0 32 32" fill="none" xmlns="http://www.w3.org/2000/svg">
<path fill-rule="evenodd" clip-rule="evenodd" d="M16 2H28C28.5302 2.00061 29.0386 2.21152 29.4135 2.58646C29.7885 2.9614 29.9994 3.46975 30 4V30H2V16C2.00053 15.4697 2.21141 14.9613 2.58637 14.5864C2.96133 14.2114 3.46973 14.0005 4 14H14V4C14.0005 3.46973 14.2114 2.96133 14.5864 2.58637C14.9613 2.21141 15.4697 2.00053 16 2ZM9 21V28H13V21H9ZM15 28H28V4H16V16H4V28H7V20C7 19.7348 7.10536 19.4804 7.29289 19.2929C7.48043 19.1054 7.73478 19 8 19H14C14.2652 19 14.5196 19.1054 14.7071 19.2929C14.8946 19.4804 15 19.7348 15 20V28ZM18 8H20V10H18V8ZM26 8H24V10H26V8ZM18 14H20V16H18V14ZM26 14H24V16H26V14ZM18 19.9996H20V21.9996H18V19.9996ZM26 19.9996H24V21.9996H26V19.9996ZM2 10.0002H7V11.9997H2V10.0002ZM12 2H10V7H12V2ZM4 5.41406L5.41407 3.99999L9.00002 7.58594L7.58595 9.00001L4 5.41406Z" fill="#FD226E"/>
</svg>
