<svg width="32" height="32" viewBox="0 0 32 32" fill="none" xmlns="http://www.w3.org/2000/svg">
<path fill-rule="evenodd" clip-rule="evenodd" d="M9.99995 1H14.9999C15.2652 1 15.5195 1.10536 15.7071 1.29289C15.8946 1.48043 15.9999 1.73478 15.9999 2V8H13.9999V3H10.9999V10.7207L10.3163 10.9487C10.2309 10.98 7.99995 11.8125 7.99995 15V28H11.9999V30H6.99995C6.73473 30 6.48038 29.8946 6.29284 29.7071C6.1053 29.5196 5.99995 29.2652 5.99995 29V15C5.93065 13.876 6.17434 12.7549 6.70395 11.7611C7.23355 10.7673 8.02832 9.93983 8.99995 9.3706V2C8.99995 1.73478 9.1053 1.48043 9.29284 1.29289C9.48038 1.10536 9.73473 1 9.99995 1ZM14.9999 11H24.9999C25.2652 11 25.5195 11.1054 25.7071 11.2929C25.8946 11.4804 25.9999 11.7348 25.9999 12V16C25.9976 17.4166 25.4945 18.7868 24.5795 19.8683C23.6645 20.9498 22.3966 21.673 20.9999 21.91V28H23.9999V30H15.9999V28H18.9999V21.91C17.6033 21.673 16.3354 20.9498 15.4204 19.8683C14.5054 18.7868 14.0023 17.4166 13.9999 16V12C13.9999 11.7348 14.1053 11.4804 14.2928 11.2929C14.4804 11.1054 14.7347 11 14.9999 11ZM22.8284 18.8284C23.5785 18.0783 23.9999 17.0609 23.9999 16V13H15.9999V16C15.9999 17.0609 16.4214 18.0783 17.1715 18.8284C17.9217 19.5786 18.9391 20 19.9999 20C21.0608 20 22.0782 19.5786 22.8284 18.8284Z" fill="#FD226E"/>
</svg>
