<svg width="32" height="32" viewBox="0 0 32 32" fill="none" xmlns="http://www.w3.org/2000/svg">
<path fill-rule="evenodd" clip-rule="evenodd" d="M28.7663 4.25564C28.0142 3.49141 26.9989 3.04278 25.9275 3.00122C24.856 2.95965 23.8091 3.32827 23 4.03194C22.1909 3.32827 21.144 2.95965 20.0725 3.00122C19.0011 3.04278 17.9858 3.49141 17.2337 4.25564C16.4429 5.0629 16 6.14794 16 7.27799C16 8.40804 16.4429 9.49308 17.2337 10.3003L22.998 16.1398L23 16.1374L23.002 16.1393L28.7663 10.3003C29.5571 9.49308 30 8.40804 30 7.27799C30 6.14794 29.5571 5.0629 28.7663 4.25564ZM27.342 8.89464L23.002 13.2919L23 13.2898L22.998 13.2918L18.658 8.89454C18.2345 8.46293 17.9972 7.88236 17.9972 7.27764C17.9972 6.67292 18.2345 6.09235 18.658 5.66074C19.0806 5.24993 19.6467 5.02011 20.2361 5.02011C20.8254 5.02011 21.3915 5.24993 21.8141 5.66074L22.9951 6.86814L23 6.86324L23.0049 6.86824L24.1859 5.66084C24.6085 5.25003 25.1746 5.02021 25.764 5.02021C26.3533 5.02021 26.9194 5.25003 27.342 5.66084C27.7656 6.09245 28.0028 6.67302 28.0028 7.27774C28.0028 7.88246 27.7656 8.46303 27.342 8.89464ZM16 30H14V25C13.9991 24.2046 13.6828 23.4421 13.1204 22.8796C12.5579 22.3172 11.7954 22.0009 11 22H7C6.20462 22.0009 5.44206 22.3172 4.87964 22.8796C4.31722 23.4421 4.00087 24.2046 4 25V30H2V25C2.00156 23.6744 2.52885 22.4035 3.46619 21.4662C4.40353 20.5288 5.6744 20.0016 7 20H11C12.3256 20.0016 13.5965 20.5288 14.5338 21.4662C15.4712 22.4035 15.9984 23.6744 16 25V30ZM10.6667 10.5056C10.1734 10.1759 9.59335 10 9 10C8.20435 10 7.44129 10.3161 6.87868 10.8787C6.31607 11.4413 6 12.2044 6 13C6 13.5933 6.17595 14.1734 6.50559 14.6667C6.83524 15.1601 7.30377 15.5446 7.85195 15.7716C8.40013 15.9987 9.00333 16.0581 9.58527 15.9424C10.1672 15.8266 10.7018 15.5409 11.1213 15.1213C11.5409 14.7018 11.8266 14.1672 11.9424 13.5853C12.0581 13.0033 11.9987 12.4001 11.7716 11.8519C11.5446 11.3038 11.1601 10.8352 10.6667 10.5056ZM6.22215 8.84265C7.0444 8.29325 8.0111 8 9 8C9.65661 8 10.3068 8.12933 10.9134 8.3806C11.52 8.63188 12.0712 9.00017 12.5355 9.46447C12.9998 9.92876 13.3681 10.48 13.6194 11.0866C13.8707 11.6932 14 12.3434 14 13C14 13.9889 13.7068 14.9556 13.1573 15.7779C12.6079 16.6001 11.8271 17.241 10.9134 17.6194C9.99979 17.9978 8.99446 18.0969 8.02455 17.9039C7.05465 17.711 6.16373 17.2348 5.46447 16.5355C4.76521 15.8363 4.289 14.9454 4.09608 13.9755C3.90315 13.0055 4.00217 12.0002 4.3806 11.0866C4.75904 10.173 5.39991 9.39206 6.22215 8.84265Z" fill="#FD226E"/>
</svg>
