<svg width="25" height="24" viewBox="0 0 25 24" fill="none" xmlns="http://www.w3.org/2000/svg">
<g clip-path="url(#clip0_2353_7191)">
<path d="M12.6254 4.29492C9.95538 4.29492 7.28738 5.07892 4.98038 6.64792H0.619385L2.58238 8.78292C1.68799 9.5978 1.061 10.6642 0.783785 11.8419C0.506568 13.0197 0.59209 14.2537 1.02912 15.382C1.46614 16.5103 2.23423 17.4799 3.23248 18.1637C4.23072 18.8474 5.41244 19.2131 6.62238 19.2129C8.1342 19.2142 9.59034 18.6425 10.6974 17.6129L12.6194 19.7049L14.5414 17.6149C15.6478 18.6434 17.1028 19.2144 18.6134 19.2129C20.2043 19.2129 21.7302 18.5811 22.8553 17.4563C23.9805 16.3315 24.6129 14.8059 24.6134 13.2149C24.6143 12.3805 24.4407 11.5552 24.1036 10.7919C23.7666 10.0287 23.2736 9.34433 22.6564 8.78292L24.6194 6.64792H20.2694C18.0155 5.11364 15.3519 4.2937 12.6254 4.29492ZM12.6194 6.25492C14.1504 6.25492 15.6824 6.55792 17.1234 7.15792C14.5624 8.13792 12.6194 10.4299 12.6194 13.0999C12.6194 10.4289 10.6774 8.13792 8.11538 7.15792C9.54252 6.56311 11.0733 6.25556 12.6194 6.25492ZM6.62138 9.15692C7.15442 9.15692 7.68224 9.26191 8.1747 9.4659C8.66716 9.66988 9.11462 9.96886 9.49153 10.3458C9.86844 10.7227 10.1674 11.1702 10.3714 11.6626C10.5754 12.1551 10.6804 12.6829 10.6804 13.2159C10.6804 13.749 10.5754 14.2768 10.3714 14.7692C10.1674 15.2617 9.86844 15.7092 9.49153 16.0861C9.11462 16.463 8.66716 16.762 8.1747 16.9659C7.68224 17.1699 7.15442 17.2749 6.62138 17.2749C5.54487 17.2749 4.51245 16.8473 3.75124 16.0861C2.99003 15.3249 2.56238 14.2924 2.56238 13.2159C2.56238 12.1394 2.99003 11.107 3.75124 10.3458C4.51245 9.58457 5.54487 9.15692 6.62138 9.15692ZM18.6134 9.15892C19.1462 9.15873 19.6739 9.26348 20.1662 9.46721C20.6586 9.67093 21.106 9.96964 21.4829 10.3463C21.8598 10.7229 22.1589 11.1701 22.363 11.6623C22.567 12.1545 22.6722 12.6821 22.6724 13.2149C22.6726 13.7478 22.5678 14.2754 22.3641 14.7678C22.1604 15.2601 21.8617 15.7075 21.485 16.0844C21.1084 16.4614 20.6612 16.7604 20.169 16.9645C19.6768 17.1686 19.1492 17.2737 18.6164 17.2739C17.5403 17.2743 16.5081 16.8472 15.7469 16.0866C14.9856 15.3259 14.5578 14.294 14.5574 13.2179C14.557 12.1418 14.9841 11.1096 15.7447 10.3484C16.5054 9.58719 17.5373 9.15932 18.6134 9.15892ZM6.62138 11.0889C6.057 11.0889 5.51574 11.3131 5.11666 11.7122C4.71758 12.1113 4.49338 12.6525 4.49338 13.2169C4.49338 13.7813 4.71758 14.3226 5.11666 14.7216C5.51574 15.1207 6.057 15.3449 6.62138 15.3449C7.18577 15.3449 7.72703 15.1207 8.12611 14.7216C8.52519 14.3226 8.74938 13.7813 8.74938 13.2169C8.74938 12.6525 8.52519 12.1113 8.12611 11.7122C7.72703 11.3131 7.18577 11.0889 6.62138 11.0889ZM18.6134 11.0889C18.049 11.0889 17.5077 11.3131 17.1087 11.7122C16.7096 12.1113 16.4854 12.6525 16.4854 13.2169C16.4854 13.7813 16.7096 14.3226 17.1087 14.7216C17.5077 15.1207 18.049 15.3449 18.6134 15.3449C19.1778 15.3449 19.719 15.1207 20.1181 14.7216C20.5172 14.3226 20.7414 13.7813 20.7414 13.2169C20.7414 12.6525 20.5172 12.1113 20.1181 11.7122C19.719 11.3131 19.1778 11.0889 18.6134 11.0889Z" fill="black"/>
</g>
<defs>
<clipPath id="clip0_2353_7191">
<rect width="24" height="24" fill="white" transform="translate(0.619385)"/>
</clipPath>
</defs>
</svg>
