<svg width="52" height="24" viewBox="0 0 52 24" fill="none" xmlns="http://www.w3.org/2000/svg">
<path d="M1 23L0.999999 1L30.1786 1L40.8617 1C41.1548 1 41.4332 1.12861 41.6232 1.35183L49.5834 10.7036C50.2194 11.4509 50.2194 12.5491 49.5833 13.2963L41.6232 22.6482C41.4332 22.8714 41.1548 23 40.8617 23L1 23Z" fill="#12CA31" stroke="#F6F6F6" stroke-width="2" stroke-linejoin="round"/>
<path d="M5.792 15L4.712 15L4.712 9.28L8.368 9.28L8.368 10.2L5.792 10.2L5.792 15ZM8.224 12.6L5.712 12.6L5.712 11.672L8.224 11.672L8.224 12.6ZM11.9448 15.128C11.5288 15.128 11.1448 15.0533 10.7928 14.904C10.4408 14.7547 10.1341 14.5467 9.87281 14.28C9.61681 14.0133 9.41681 13.6987 9.27281 13.336C9.13415 12.968 9.06481 12.568 9.06481 12.136C9.06481 11.704 9.13415 11.3067 9.27281 10.944C9.41681 10.5813 9.61681 10.2667 9.87281 10C10.1341 9.73333 10.4408 9.52533 10.7928 9.376C11.1448 9.22667 11.5288 9.152 11.9448 9.152C12.3608 9.152 12.7421 9.22667 13.0888 9.376C13.4408 9.52533 13.7448 9.736 14.0008 10.008C14.2621 10.2747 14.4648 10.5893 14.6088 10.952C14.7528 11.3093 14.8248 11.704 14.8248 12.136C14.8248 12.568 14.7528 12.9653 14.6088 13.328C14.4648 13.6907 14.2621 14.008 14.0008 14.28C13.7448 14.5467 13.4408 14.7547 13.0888 14.904C12.7421 15.0533 12.3608 15.128 11.9448 15.128ZM11.9448 14.16C12.2915 14.16 12.5955 14.072 12.8568 13.896C13.1181 13.72 13.3208 13.48 13.4648 13.176C13.6141 12.872 13.6888 12.5253 13.6888 12.136C13.6888 11.7413 13.6141 11.3947 13.4648 11.096C13.3208 10.792 13.1181 10.5547 12.8568 10.384C12.5955 10.208 12.2915 10.12 11.9448 10.12C11.6035 10.12 11.2995 10.208 11.0328 10.384C10.7715 10.5547 10.5661 10.792 10.4168 11.096C10.2728 11.3947 10.2008 11.7413 10.2008 12.136C10.2008 12.5253 10.2728 12.8747 10.4168 13.184C10.5661 13.488 10.7715 13.728 11.0328 13.904C11.2995 14.0747 11.6035 14.16 11.9448 14.16ZM17.0498 15L15.9698 15L15.9698 9.28L18.1698 9.28C18.5538 9.28 18.8898 9.35467 19.1778 9.504C19.4711 9.648 19.6978 9.85067 19.8578 10.112C20.0231 10.3733 20.1058 10.68 20.1058 11.032C20.1058 11.3787 20.0231 11.6853 19.8578 11.952C19.6978 12.2133 19.4711 12.4187 19.1778 12.568C18.8898 12.712 18.5538 12.784 18.1698 12.784L16.9698 12.784L16.9698 11.856L18.1698 11.856C18.4311 11.856 18.6365 11.7813 18.7858 11.632C18.9405 11.4827 19.0178 11.2827 19.0178 11.032C19.0178 10.7707 18.9405 10.568 18.7858 10.424C18.6365 10.2747 18.4311 10.2 18.1698 10.2L17.0498 10.2L17.0498 15ZM20.6658 15L19.3538 15L17.4738 12.336L18.7058 12.336L20.6658 15ZM26.0951 15L25.0151 15L25.0151 12.68L22.9591 9.28L24.2311 9.28L25.6631 11.888H25.4951L26.9431 9.28L28.1511 9.28L26.0951 12.688L26.0951 15ZM31.187 15.128C30.771 15.128 30.387 15.0533 30.035 14.904C29.683 14.7547 29.3763 14.5467 29.115 14.28C28.859 14.0133 28.659 13.6987 28.515 13.336C28.3763 12.968 28.307 12.568 28.307 12.136C28.307 11.704 28.3763 11.3067 28.515 10.944C28.659 10.5813 28.859 10.2667 29.115 10C29.3763 9.73333 29.683 9.52533 30.035 9.376C30.387 9.22667 30.771 9.152 31.187 9.152C31.603 9.152 31.9843 9.22667 32.331 9.376C32.683 9.52533 32.987 9.736 33.243 10.008C33.5043 10.2747 33.707 10.5893 33.851 10.952C33.995 11.3093 34.067 11.704 34.067 12.136C34.067 12.568 33.995 12.9653 33.851 13.328C33.707 13.6907 33.5043 14.008 33.243 14.28C32.987 14.5467 32.683 14.7547 32.331 14.904C31.9843 15.0533 31.603 15.128 31.187 15.128ZM31.187 14.16C31.5337 14.16 31.8377 14.072 32.099 13.896C32.3603 13.72 32.563 13.48 32.707 13.176C32.8563 12.872 32.931 12.5253 32.931 12.136C32.931 11.7413 32.8563 11.3947 32.707 11.096C32.563 10.792 32.3603 10.5547 32.099 10.384C31.8377 10.208 31.5337 10.12 31.187 10.12C30.8457 10.12 30.5417 10.208 30.275 10.384C30.0137 10.5547 29.8083 10.792 29.659 11.096C29.515 11.3947 29.443 11.7413 29.443 12.136C29.443 12.5253 29.515 12.8747 29.659 13.184C29.8083 13.488 30.0137 13.728 30.275 13.904C30.5417 14.0747 30.8457 14.16 31.187 14.16ZM39.748 9.28L39.748 12.744C39.748 13.496 39.5427 14.0827 39.132 14.504C38.7213 14.92 38.156 15.128 37.436 15.128C36.716 15.128 36.148 14.92 35.732 14.504C35.3213 14.0827 35.116 13.496 35.116 12.744L35.116 9.28L36.196 9.28L36.196 12.744C36.196 13.176 36.3053 13.52 36.524 13.776C36.7427 14.0267 37.0467 14.152 37.436 14.152C37.8253 14.152 38.1293 14.0267 38.348 13.776C38.5667 13.52 38.676 13.176 38.676 12.744L38.676 9.28L39.748 9.28Z" fill="#F6F6F6"/>
</svg>
