<svg width="40" height="40" viewBox="0 0 40 40" fill="none" xmlns="http://www.w3.org/2000/svg">
<path d="M23.75 35H16.25C15.5872 34.9992 14.9517 34.7356 14.4831 34.2669C14.0144 33.7983 13.7508 33.1628 13.75 32.5V26.25H7.5C6.83719 26.2492 6.20175 25.9856 5.73307 25.5169C5.2644 25.0483 5.00076 24.4128 5 23.75V16.25C5.00066 15.5872 5.26427 14.9517 5.73296 14.483C6.20166 14.0143 6.83716 13.7507 7.5 13.75H13.75V7.5C13.7507 6.83716 14.0143 6.20166 14.483 5.73296C14.9517 5.26427 15.5872 5.00066 16.25 5H23.75C24.4128 5.00076 25.0483 5.2644 25.5169 5.73307C25.9856 6.20175 26.2492 6.83719 26.25 7.5V13.75H32.5C33.1628 13.7508 33.7983 14.0144 34.2669 14.4831C34.7356 14.9517 34.9992 15.5872 35 16.25V23.75C34.9991 24.4128 34.7354 25.0481 34.2668 25.5168C33.7981 25.9854 33.1628 26.2491 32.5 26.25H26.25V32.5C26.2491 33.1628 25.9854 33.7981 25.5168 34.2668C25.0481 34.7354 24.4128 34.9991 23.75 35ZM7.5 16.25V23.75H16.25V32.5H23.75V23.75H32.5V16.25H23.75V7.5H16.25V16.25H7.5Z" fill="#1D0387"/>
</svg>
