<svg width="28" height="25" viewBox="0 0 28 25" fill="none" xmlns="http://www.w3.org/2000/svg">
<path d="M20.4502 1.5C21.2446 1.49941 22.0312 1.65738 22.7638 1.96466C23.4964 2.27195 24.1603 2.72236 24.7166 3.28952C25.8589 4.4494 26.4992 6.01204 26.4992 7.64C26.4992 9.26815 25.8588 10.831 24.7162 11.9909L24.7158 11.9913L14.3558 22.4813L14 22.8416L13.6443 22.4813L3.28427 11.9913L3.28381 11.9909C2.14125 10.831 1.50081 9.26815 1.50081 7.64C1.50081 6.01186 2.14125 4.44905 3.28381 3.28913C3.84033 2.72254 4.50414 2.27248 5.23649 1.96523C5.96908 1.65787 6.75557 1.49957 7.55002 1.49957C8.34447 1.49957 9.13096 1.65787 9.86355 1.96523C10.5961 2.27258 11.2601 2.72283 11.8168 3.28968L11.8177 3.2906L14.0007 5.52519L16.1704 3.31258C16.1709 3.31208 16.1714 3.31159 16.1719 3.31109C16.7265 2.73743 17.3911 2.28139 18.1259 1.97022C18.8612 1.65886 19.6517 1.49894 20.4502 1.5ZM20.4502 1.5C20.4504 1.5 20.4505 1.5 20.4507 1.5L20.45 2L20.4496 1.5C20.4498 1.5 20.45 1.5 20.4502 1.5ZM20.4499 0.500003L20.4496 0.500003C19.5218 0.499216 18.6031 0.683681 17.7475 1.04258C16.8919 1.40148 16.1166 1.92759 15.467 2.59007L15.4652 2.59197L15.4652 2.59197L14.3552 3.71197L14 4.0703L13.6449 3.71197L12.5349 2.59197L12.5335 2.59061C11.883 1.9292 11.1074 1.4039 10.2517 1.04533C9.39614 0.686765 8.47772 0.502097 7.55002 0.502097C6.62232 0.502097 5.70389 0.686765 4.84829 1.04533C3.9927 1.4039 3.21705 1.92918 2.56654 2.59057L20.4499 0.500003ZM20.4499 0.500003C21.3777 0.500258 22.2962 0.685233 23.1518 1.04414C24.0075 1.40305 24.7831 1.92871 25.4334 2.59047C26.7596 3.94059 27.5027 5.75746 27.5027 7.65C27.5027 9.54225 26.7599 11.3589 25.434 12.7089C25.4338 12.7091 25.4336 12.7094 25.4333 12.7096L14 24.2884M20.4499 0.500003L14 24.2884M14 24.2884L2.56671 12.7096C2.56655 12.7095 2.5664 12.7093 2.56624 12.7091C1.24026 11.3591 0.497314 9.54236 0.497314 7.65C0.497314 5.75753 1.24035 3.94071 2.56649 2.59061L14 24.2884Z" fill="#FD226E" stroke="#FD226E"/>
</svg>
