<svg width="10" height="14" viewBox="0 0 10 14" fill="none" xmlns="http://www.w3.org/2000/svg">
<path fill-rule="evenodd" clip-rule="evenodd" d="M8.5 1V4.835C8.5 5.05137 8.42982 5.2619 8.3 5.435L7.125 7L8.3 8.565C8.42982 8.7381 8.5 8.94863 8.5 9.165V13H10V14H0V13H1.5V9.165C1.5 8.94863 1.57018 8.7381 1.7 8.565L2.875 7L1.7 5.435C1.57018 5.2619 1.5 5.05137 1.5 4.835V1H0V0H10V1H8.5ZM7.5 4.5V1H2.5V4.5H7.5ZM7.5 13V9.165L5.875 7L7 5.5H3L4.125 7L2.5 9.165V13H7.5ZM5.5 8.5H4.5V9.5H5.5V8.5ZM5.5 10.5H4.5V11.5H5.5V10.5Z" fill="black"/>
</svg>
