<svg width="25" height="24" viewBox="0 0 25 24" fill="none" xmlns="http://www.w3.org/2000/svg">
<path fill-rule="evenodd" clip-rule="evenodd" d="M16.2561 4.67415C15.3072 4.6308 15.0225 4.62165 12.6194 4.62165V4.62157C10.2163 4.62157 9.93161 4.6308 8.98263 4.67408C8.41192 4.68087 7.84662 4.78569 7.31141 4.98397C6.92328 5.13375 6.57079 5.3631 6.27662 5.65728C5.98245 5.95146 5.75311 6.30396 5.60336 6.6921C5.40508 7.22731 5.30025 7.79261 5.29346 8.36333C5.25011 9.3123 5.24096 9.597 5.24096 12.0001C5.24096 14.4031 5.25018 14.6878 5.29346 15.6368C5.30025 16.2075 5.40508 16.7728 5.60336 17.3081C5.75312 17.6962 5.98247 18.0487 6.27663 18.3428C6.5708 18.637 6.92328 18.8663 7.31141 19.0161C7.84662 19.2144 8.41192 19.3192 8.98263 19.326C9.93153 19.3694 10.2161 19.3785 12.6194 19.3785C15.0227 19.3785 15.3072 19.3693 16.2561 19.326C16.8269 19.3192 17.3922 19.2144 17.9274 19.0161C18.3155 18.8663 18.668 18.637 18.9621 18.3428C19.2563 18.0487 19.4856 17.6962 19.6354 17.3081C19.8337 16.7728 19.9385 16.2075 19.9453 15.6368C19.9887 14.6878 19.9978 14.4031 19.9978 12.0001C19.9978 9.597 19.9886 9.3123 19.9453 8.36333C19.9385 7.79261 19.8337 7.22731 19.6354 6.6921C19.4856 6.30398 19.2563 5.95149 18.9621 5.65732C18.668 5.36316 18.3155 5.13381 17.9274 4.98405C17.3922 4.78577 16.8269 4.68094 16.2561 4.67415ZM8.90868 3.05415C9.86861 3.01035 10.1751 3 12.6194 3C15.0636 3 15.3702 3.01035 16.3297 3.05453C17.0763 3.06948 17.815 3.21093 18.5144 3.47287C19.1123 3.70407 19.6553 4.05763 20.1086 4.51089C20.562 4.96415 20.9156 5.50712 21.1469 6.105C21.4088 6.80422 21.5502 7.54279 21.5652 8.2893C21.609 9.24922 21.6194 9.55575 21.6194 12C21.6194 14.4443 21.609 14.7508 21.5656 15.7103C21.5507 16.457 21.4092 17.1957 21.1473 17.895C20.916 18.493 20.5624 19.036 20.1091 19.4893C19.6558 19.9426 19.1127 20.2963 18.5148 20.5275C17.8154 20.7894 17.0767 20.9309 16.3301 20.9459C15.3702 20.9896 15.0636 21 12.6194 21C10.1751 21 9.86861 20.9897 8.90906 20.9462C8.16242 20.9313 7.42372 20.7898 6.72439 20.5279C6.12643 20.2966 5.58339 19.943 5.13006 19.4897C4.67673 19.0364 4.32312 18.4933 4.09188 17.8954C3.82994 17.196 3.68849 16.4573 3.67353 15.7107C3.62973 14.7508 3.61938 14.4443 3.61938 12C3.61938 9.55575 3.62973 9.24923 3.67353 8.28968C3.68848 7.54304 3.82994 6.80434 4.09188 6.105C4.32312 5.50705 4.67673 4.96401 5.13006 4.51068C5.58339 4.05735 6.12643 3.70374 6.72439 3.4725C7.42361 3.21059 8.16217 3.06914 8.90868 3.05415ZM17.4236 8.27572C18.02 8.27572 18.5036 7.79219 18.5036 7.19572C18.5036 6.59926 18.02 6.11572 17.4236 6.11572C16.8271 6.11572 16.3436 6.59926 16.3436 7.19572C16.3436 7.79219 16.8271 8.27572 17.4236 8.27572ZM12.6194 7.37842C11.7053 7.37842 10.8117 7.64947 10.0517 8.15731C9.29169 8.66514 8.69932 9.38694 8.34951 10.2314C7.99971 11.0759 7.90819 12.0052 8.08652 12.9017C8.26484 13.7982 8.70501 14.6217 9.35136 15.2681C9.99771 15.9144 10.8212 16.3546 11.7177 16.5329C12.6142 16.7112 13.5435 16.6197 14.388 16.2699C15.2325 15.9201 15.9543 15.3277 16.4621 14.5677C16.97 13.8077 17.241 12.9141 17.241 12.0001C17.241 10.7743 16.7541 9.5988 15.8874 8.73207C15.0206 7.86534 13.8451 7.37842 12.6194 7.37842ZM12.6194 15.0001C12.026 15.0001 11.446 14.8241 10.9527 14.4945C10.4593 14.1648 10.0748 13.6963 9.84772 13.1481C9.62066 12.5999 9.56125 11.9967 9.67701 11.4148C9.79276 10.8329 10.0785 10.2983 10.498 9.87875C10.9176 9.45919 11.4521 9.17347 12.0341 9.05771C12.616 8.94196 13.2192 9.00137 13.7674 9.22843C14.3156 9.45549 14.7841 9.84001 15.1138 10.3334C15.4434 10.8267 15.6194 11.4067 15.6194 12.0001C15.6194 12.7957 15.3033 13.5588 14.7407 14.1214C14.1781 14.684 13.415 15.0001 12.6194 15.0001Z" fill="#00001E"/>
</svg>
