<svg width="42" height="42" viewBox="0 0 42 42" fill="none" xmlns="http://www.w3.org/2000/svg">
<path fill-rule="evenodd" clip-rule="evenodd" d="M16.9995 16.5H13.7499L12.5002 13.5H4.5L3.2496 16.5H0L6.8748 0H10.125L16.9995 16.5ZM8.49975 3.9L5.74965 10.5H11.25L8.49975 3.9ZM24 13.5H42V16.5H24V13.5ZM42 19.5H24V22.5H42V19.5ZM33 25.5H24V28.5H33V25.5ZM18 28.5V25.5H10.5V22.5H7.5V25.5H0V28.5H12.3222C11.7709 30.7513 10.6226 32.8122 8.99835 34.4657C8.14697 33.5774 7.41721 32.5802 6.82815 31.5H3.5001C4.26261 33.3305 5.35305 35.0063 6.71775 36.4449C5.10965 37.5902 3.35463 38.5137 1.5 39.1905L2.55315 42C4.86124 41.1594 7.0306 39.9782 8.9892 38.4957C10.9553 39.9788 13.1318 41.1599 15.4468 42L16.5 39.1905C14.6464 38.515 12.892 37.5933 11.2842 36.45C13.4014 34.2607 14.8253 31.4951 15.3774 28.5H18Z" fill="#1D0387"/>
</svg>
