<svg width="16" height="16" viewBox="0 0 16 16" fill="none" xmlns="http://www.w3.org/2000/svg">
<path fill-rule="evenodd" clip-rule="evenodd" d="M10.5 1.00022H11C11.3981 0.98476 11.7951 1.05178 12.1661 1.19707C12.5371 1.34236 12.874 1.56279 13.1557 1.84451C13.4374 2.12623 13.6579 2.46315 13.8032 2.83413C13.9484 3.2051 14.0155 3.60211 14 4.00023V9.00023C14 9.26544 13.8946 9.5198 13.7071 9.70733C13.5196 9.89487 13.2652 10.0002 13 10.0002H11.5V15.0002H10.5V1.00022ZM11.5 9.00023H13V4.00023C13 3.81523 12.94 2.32522 11.5 2.04523V9.00023ZM7 5.50024C7 6.03068 6.78929 6.53938 6.41421 6.91446C6.03914 7.28953 5.53043 7.50024 5 7.50024C4.46957 7.50024 3.96086 7.28953 3.58579 6.91446C3.21071 6.53938 3 6.03068 3 5.50024V1.00024H2V5.50024C2.00072 6.20868 2.25212 6.89401 2.70969 7.43486C3.16726 7.9757 3.80147 8.33717 4.5 8.45524V15.0002H5.5V8.45524C6.19853 8.33717 6.83274 7.9757 7.29031 7.43486C7.74788 6.89401 7.99928 6.20868 8 5.50024V1.00024H7V5.50024ZM5.5 1.00024H4.5V6.00024H5.5V1.00024Z" fill="white"/>
</svg>
