<svg width="16" height="16" viewBox="0 0 16 16" fill="none" xmlns="http://www.w3.org/2000/svg">
<path fill-rule="evenodd" clip-rule="evenodd" d="M11 4H14C14.2651 4.0003 14.5193 4.10576 14.7068 4.29323C14.8942 4.4807 14.9997 4.73488 15 5V10C15.0001 11.1523 14.6022 12.2694 13.8735 13.1621C13.1448 14.0547 12.1301 14.6683 11.0011 14.8989C9.87209 15.1296 8.69806 14.9631 7.67765 14.4277C6.65725 13.8923 5.85313 13.0208 5.40135 11.9607C4.18873 11.8134 3.07186 11.2277 2.26115 10.3139C1.45045 9.4002 1.0019 8.22153 1 7V2C1.0003 1.73488 1.10576 1.4807 1.29323 1.29323C1.4807 1.10576 1.73488 1.0003 2 1H10C10.2651 1.0003 10.5193 1.10576 10.7068 1.29323C10.8942 1.4807 10.9997 1.73488 11 2V4ZM2 2V7C2.00156 7.90079 2.30681 8.77473 2.86642 9.4806C3.42603 10.1865 4.20731 10.683 5.084 10.89C5.02938 10.5965 5.00127 10.2986 5 10V5C5.0003 4.73488 5.10576 4.4807 5.29323 4.29323C5.4807 4.10576 5.73488 4.0003 6 4H10V2H2ZM12.8284 12.8284C13.5786 12.0783 14 11.0609 14 10V5H6V10C6 11.0609 6.42143 12.0783 7.17157 12.8284C7.92172 13.5786 8.93913 14 10 14C11.0609 14 12.0783 13.5786 12.8284 12.8284ZM8 7.00005C7.80222 7.00005 7.60888 7.0587 7.44443 7.16858C7.27998 7.27846 7.15181 7.43464 7.07612 7.61736C7.00043 7.80009 6.98063 8.00116 7.01922 8.19514C7.0578 8.38912 7.15304 8.5673 7.29289 8.70715C7.43275 8.84701 7.61093 8.94225 7.80491 8.98083C7.99889 9.01942 8.19996 8.99962 8.38268 8.92393C8.56541 8.84824 8.72159 8.72007 8.83147 8.55562C8.94135 8.39117 9 8.19783 9 8.00005C9.0013 7.86837 8.97632 7.73775 8.92652 7.61584C8.87673 7.49393 8.80311 7.38317 8.71 7.29005C8.61688 7.19693 8.50612 7.12332 8.38421 7.07353C8.2623 7.02373 8.13168 6.99875 8 7.00005ZM11.4444 7.16858C11.6089 7.0587 11.8022 7.00005 12 7.00005C12.1317 6.99875 12.2623 7.02373 12.3842 7.07353C12.5061 7.12332 12.6169 7.19693 12.71 7.29005C12.8031 7.38317 12.8767 7.49393 12.9265 7.61584C12.9763 7.73775 13.0013 7.86837 13 8.00005C13 8.19783 12.9414 8.39117 12.8315 8.55562C12.7216 8.72007 12.5654 8.84824 12.3827 8.92393C12.2 8.99962 11.9989 9.01942 11.8049 8.98083C11.6109 8.94225 11.4327 8.84701 11.2929 8.70715C11.153 8.5673 11.0578 8.38912 11.0192 8.19514C10.9806 8.00116 11.0004 7.80009 11.0761 7.61736C11.1518 7.43464 11.28 7.27846 11.4444 7.16858ZM8.34487 12.0848C8.85381 12.3577 9.42246 12.5004 10 12.4999C10.5775 12.5004 11.1462 12.3577 11.6551 12.0848C12.1641 11.8118 12.5974 11.4169 12.9165 10.9355L12.0835 10.3818C11.8554 10.7256 11.5458 11.0076 11.1823 11.2027C10.8187 11.3978 10.4126 11.4999 10 11.4999C9.58743 11.4999 9.18127 11.3978 8.81773 11.2027C8.4542 11.0076 8.14458 10.7256 7.9165 10.3818L7.0835 10.9355C7.40256 11.4169 7.83593 11.8118 8.34487 12.0848Z" fill="white"/>
</svg>
