<svg width="51" height="24" viewBox="0 0 51 24" fill="none" xmlns="http://www.w3.org/2000/svg">
<path d="M1 23L0.999999 1L26 0.999999L49.8584 0.999998L41.7229 10.716C41.1008 11.459 41.1008 12.541 41.7229 13.284L49.8584 23L1 23Z" fill="#613CFC" stroke="#F6F6F6" stroke-width="2" stroke-linejoin="round"/>
<path d="M7 11L5.928 11L5.928 6.136L7 6.136L7 11ZM8.672 6.216L4.256 6.216L4.256 5.28L8.672 5.28L8.672 6.216ZM12.0229 11.128C11.6069 11.128 11.2229 11.0533 10.8709 10.904C10.5189 10.7547 10.2123 10.5467 9.95094 10.28C9.69494 10.0133 9.49494 9.69867 9.35094 9.336C9.21227 8.968 9.14294 8.568 9.14294 8.136C9.14294 7.704 9.21227 7.30667 9.35094 6.944C9.49494 6.58133 9.69494 6.26667 9.95094 6C10.2123 5.73333 10.5189 5.52533 10.8709 5.376C11.2229 5.22667 11.6069 5.152 12.0229 5.152C12.4389 5.152 12.8203 5.22667 13.1669 5.376C13.5189 5.52533 13.8229 5.736 14.0789 6.008C14.3403 6.27467 14.5429 6.58933 14.6869 6.952C14.8309 7.30933 14.9029 7.704 14.9029 8.136C14.9029 8.568 14.8309 8.96533 14.6869 9.328C14.5429 9.69067 14.3403 10.008 14.0789 10.28C13.8229 10.5467 13.5189 10.7547 13.1669 10.904C12.8203 11.0533 12.4389 11.128 12.0229 11.128ZM12.0229 10.16C12.3696 10.16 12.6736 10.072 12.9349 9.896C13.1963 9.72 13.3989 9.48 13.5429 9.176C13.6923 8.872 13.7669 8.52533 13.7669 8.136C13.7669 7.74133 13.6923 7.39467 13.5429 7.096C13.3989 6.792 13.1963 6.55467 12.9349 6.384C12.6736 6.208 12.3696 6.12 12.0229 6.12C11.6816 6.12 11.3776 6.208 11.1109 6.384C10.8496 6.55467 10.6443 6.792 10.4949 7.096C10.3509 7.39467 10.2789 7.74133 10.2789 8.136C10.2789 8.52533 10.3509 8.87467 10.4949 9.184C10.6443 9.488 10.8496 9.728 11.1109 9.904C11.3776 10.0747 11.6816 10.16 12.0229 10.16ZM16.0479 11L16.0479 5.28L18.3679 5.28C18.7199 5.28 19.0266 5.34133 19.2879 5.464C19.5546 5.58667 19.7626 5.76 19.9119 5.984C20.0613 6.208 20.1359 6.46933 20.1359 6.768C20.1359 7.05067 20.0613 7.30133 19.9119 7.52C19.7626 7.73867 19.5546 7.90933 19.2879 8.032C19.0266 8.14933 18.7199 8.208 18.3679 8.208L17.1999 8.208V7.8L18.4159 7.8C18.8106 7.8 19.1519 7.864 19.4399 7.992C19.7333 8.11467 19.9599 8.29333 20.1199 8.528C20.2799 8.75733 20.3599 9.02933 20.3599 9.344C20.3599 9.67467 20.2773 9.96533 20.1119 10.216C19.9519 10.4667 19.7253 10.6613 19.4319 10.8C19.1439 10.9333 18.8053 11 18.4159 11L16.0479 11ZM17.1279 10.088L18.4239 10.088C18.6853 10.088 18.8906 10.0187 19.0399 9.88C19.1946 9.736 19.2719 9.53867 19.2719 9.288C19.2719 9.048 19.1946 8.85867 19.0399 8.72C18.8906 8.58133 18.6853 8.512 18.4239 8.512L17.0479 8.512V7.624L18.3039 7.624C18.5333 7.624 18.7146 7.56 18.8479 7.432C18.9813 7.29867 19.0479 7.11733 19.0479 6.888C19.0479 6.67467 18.9813 6.50667 18.8479 6.384C18.7146 6.256 18.5333 6.192 18.3039 6.192L17.1279 6.192L17.1279 10.088ZM23.8608 11L22.7808 11L22.7808 8.68L20.7248 5.28L21.9968 5.28L23.4288 7.888L23.2608 7.888L24.7088 5.28L25.9168 5.28L23.8608 8.688L23.8608 11ZM27.1639 7.344L26.5399 7.344C26.7212 7.12 26.8705 6.88 26.9879 6.624C27.1105 6.368 27.1585 6.13867 27.1319 5.936L27.2279 6.296C27.0412 6.30133 26.8839 6.24267 26.7559 6.12C26.6332 5.99733 26.5719 5.84267 26.5719 5.656C26.5719 5.46933 26.6305 5.31467 26.7479 5.192C26.8705 5.064 27.0225 5 27.2039 5C27.3959 5 27.5532 5.06667 27.6759 5.2C27.8039 5.33333 27.8679 5.51733 27.8679 5.752C27.8679 6.008 27.8039 6.27467 27.6759 6.552C27.5479 6.824 27.3772 7.088 27.1639 7.344ZM28.2648 10.072L28.9768 9.344C29.1048 9.52 29.2594 9.672 29.4408 9.8C29.6274 9.928 29.8274 10.0267 30.0408 10.096C30.2594 10.16 30.4834 10.192 30.7128 10.192C31.0648 10.192 31.3421 10.1227 31.5448 9.984C31.7528 9.84 31.8568 9.64533 31.8568 9.4C31.8568 9.176 31.7581 9 31.5608 8.872C31.3688 8.744 31.0408 8.64267 30.5768 8.568C29.8621 8.46133 29.3368 8.27467 29.0008 8.008C28.6701 7.74133 28.5048 7.37867 28.5048 6.92C28.5048 6.56267 28.5954 6.25333 28.7768 5.992C28.9581 5.72533 29.2088 5.52 29.5288 5.376C29.8541 5.22667 30.2248 5.152 30.6408 5.152C31.1154 5.152 31.5501 5.24 31.9448 5.416C32.3394 5.58667 32.6728 5.832 32.9448 6.152L32.2568 6.872C32.0488 6.616 31.8088 6.42133 31.5368 6.288C31.2701 6.14933 30.9741 6.08 30.6488 6.08C30.3288 6.08 30.0728 6.14667 29.8808 6.28C29.6888 6.408 29.5928 6.58933 29.5928 6.824C29.5928 7.02667 29.6861 7.184 29.8728 7.296C30.0594 7.408 30.3794 7.50133 30.8328 7.576C31.5581 7.69333 32.0914 7.896 32.4328 8.184C32.7794 8.46667 32.9528 8.85333 32.9528 9.344C32.9528 9.696 32.8594 10.008 32.6727 10.28C32.4861 10.5467 32.2221 10.7547 31.8808 10.904C31.5394 11.0533 31.1421 11.128 30.6888 11.128C30.1981 11.128 29.7448 11.0373 29.3288 10.856C28.9128 10.6747 28.5581 10.4133 28.2648 10.072Z" fill="#F6F6F6"/>
<path d="M8.768 17.328L9.472 18.056C9.22667 18.392 8.90933 18.656 8.52 18.848C8.13067 19.0347 7.71733 19.128 7.28 19.128C6.86933 19.128 6.49067 19.056 6.144 18.912C5.79733 18.7627 5.49333 18.5547 5.232 18.288C4.976 18.0213 4.77867 17.704 4.64 17.336C4.50133 16.968 4.432 16.568 4.432 16.136C4.432 15.704 4.50133 15.3067 4.64 14.944C4.784 14.576 4.984 14.2587 5.24 13.992C5.496 13.7253 5.8 13.52 6.152 13.376C6.50933 13.2267 6.896 13.152 7.312 13.152C7.74933 13.152 8.15467 13.2453 8.528 13.432C8.90667 13.6133 9.22133 13.8773 9.472 14.224L8.768 14.952C8.59733 14.6853 8.384 14.48 8.128 14.336C7.87733 14.192 7.60267 14.12 7.304 14.12C6.968 14.12 6.66667 14.2053 6.4 14.376C6.13867 14.5467 5.93333 14.784 5.784 15.088C5.64 15.392 5.568 15.7413 5.568 16.136C5.568 16.5307 5.64 16.8827 5.784 17.192C5.93333 17.496 6.13867 17.7333 6.4 17.904C6.66133 18.0747 6.96267 18.16 7.304 18.16C7.60267 18.16 7.87733 18.088 8.128 17.944C8.384 17.8 8.59733 17.5947 8.768 17.328ZM14.0609 19L14.0609 13.28L15.1409 13.28L15.1409 19L14.0609 19ZM11.5889 19L10.5089 19L10.5089 13.28L11.5889 13.28L11.5889 19ZM11.5089 16.528L11.5089 15.592L14.1329 15.592L14.1329 16.528L11.5089 16.528ZM19.1636 19.128C18.7476 19.128 18.3636 19.0533 18.0116 18.904C17.6596 18.7547 17.3529 18.5467 17.0916 18.28C16.8356 18.0133 16.6356 17.6987 16.4916 17.336C16.3529 16.968 16.2836 16.568 16.2836 16.136C16.2836 15.704 16.3529 15.3067 16.4916 14.944C16.6356 14.5813 16.8356 14.2667 17.0916 14C17.3529 13.7333 17.6596 13.5253 18.0116 13.376C18.3636 13.2267 18.7476 13.152 19.1636 13.152C19.5796 13.152 19.9609 13.2267 20.3076 13.376C20.6596 13.5253 20.9636 13.736 21.2196 14.008C21.4809 14.2747 21.6836 14.5893 21.8276 14.952C21.9716 15.3093 22.0436 15.704 22.0436 16.136C22.0436 16.568 21.9716 16.9653 21.8276 17.328C21.6836 17.6907 21.4809 18.008 21.2196 18.28C20.9636 18.5467 20.6596 18.7547 20.3076 18.904C19.9609 19.0533 19.5796 19.128 19.1636 19.128ZM19.1636 18.16C19.5102 18.16 19.8142 18.072 20.0756 17.896C20.3369 17.72 20.5396 17.48 20.6836 17.176C20.8329 16.872 20.9076 16.5253 20.9076 16.136C20.9076 15.7413 20.8329 15.3947 20.6836 15.096C20.5396 14.792 20.3369 14.5547 20.0756 14.384C19.8142 14.208 19.5102 14.12 19.1636 14.12C18.8222 14.12 18.5182 14.208 18.2516 14.384C17.9902 14.5547 17.7849 14.792 17.6356 15.096C17.4916 15.3947 17.4196 15.7413 17.4196 16.136C17.4196 16.5253 17.4916 16.8747 17.6356 17.184C17.7849 17.488 17.9902 17.728 18.2516 17.904C18.5182 18.0747 18.8222 18.16 19.1636 18.16ZM24.2686 19L23.1886 19L23.1886 13.28L24.2686 13.28L24.2686 19ZM29.7368 17.328L30.4408 18.056C30.1954 18.392 29.8781 18.656 29.4887 18.848C29.0994 19.0347 28.6861 19.128 28.2488 19.128C27.8381 19.128 27.4594 19.056 27.1128 18.912C26.7661 18.7627 26.4621 18.5547 26.2008 18.288C25.9448 18.0213 25.7474 17.704 25.6088 17.336C25.4701 16.968 25.4008 16.568 25.4008 16.136C25.4008 15.704 25.4701 15.3067 25.6088 14.944C25.7528 14.576 25.9528 14.2587 26.2088 13.992C26.4648 13.7253 26.7688 13.52 27.1208 13.376C27.4781 13.2267 27.8648 13.152 28.2808 13.152C28.7181 13.152 29.1234 13.2453 29.4968 13.432C29.8754 13.6133 30.1901 13.8773 30.4408 14.224L29.7368 14.952C29.5661 14.6853 29.3528 14.48 29.0968 14.336C28.8461 14.192 28.5714 14.12 28.2728 14.12C27.9368 14.12 27.6354 14.2053 27.3688 14.376C27.1074 14.5467 26.9021 14.784 26.7528 15.088C26.6088 15.392 26.5368 15.7413 26.5368 16.136C26.5368 16.5307 26.6088 16.8827 26.7528 17.192C26.9021 17.496 27.1074 17.7333 27.3688 17.904C27.6301 18.0747 27.9314 18.16 28.2728 18.16C28.5714 18.16 28.8461 18.088 29.0968 17.944C29.3528 17.8 29.5661 17.5947 29.7368 17.328ZM35.2856 19L31.4776 19L31.4776 13.28L35.2856 13.28L35.2856 14.2L32.5576 14.2L32.5576 18.08L35.2856 18.08L35.2856 19ZM35.1416 16.568L32.4776 16.568L32.4776 15.64L35.1416 15.64L35.1416 16.568Z" fill="#F6F6F6"/>
</svg>
